<svg width="760.5" height="125.7" xmlns="http://www.w3.org/2000/svg">
 <metadata>image/svg+xml</metadata>
 <defs>
  <clipPath id="clipPath3748">
   <path id="svg_1" d="m-136.077002,834.704904l841.89,0l0,-595.276l-841.89,0l0,595.276z"/>
  </clipPath>
 </defs>
 <g>
  <title>background</title>
  <rect fill="none" id="canvas_background" height="127.7" width="762.5" y="-1" x="-1"/>
 </g>
 <g>
  <title>Layer 1</title>
  <g id="svg_2" transform="matrix(1.3333,0,0,-1.3333,0,793.7) ">
   <g id="svg_3" clip-path="url(#clipPath3748)">
    <g id="svg_4">
     <path id="svg_5" fill="#231f20" d="m171.363001,550.478892c2.928,0 5.444,-0.644 7.55,-1.927c2.106,-1.285 3.826,-3.223 5.162,-5.817l8.359,0c-1.618,4.855 -4.212,8.623 -7.781,11.307c-3.57,2.683 -7.782,4.025 -12.635,4.025c-3.107,0 -6.023,-0.603 -8.744,-1.81c-2.723,-1.208 -5.176,-2.979 -7.358,-5.317c-1.978,-2.13 -3.473,-4.487 -4.488,-7.068c-1.014,-2.581 -1.521,-5.348 -1.521,-8.302c0,-2.876 0.558,-5.695 1.676,-8.455c1.117,-2.761 2.664,-5.18 4.641,-7.261c2.081,-2.183 4.404,-3.82 6.972,-4.911s5.432,-1.638 8.59,-1.638c5.009,0 9.259,1.317 12.751,3.949c3.493,2.632 6.125,6.503 7.897,11.614l-8.359,0c-1.207,-2.569 -2.889,-4.553 -5.046,-5.951c-2.158,-1.4 -4.571,-2.101 -7.243,-2.101c-3.98,0 -7.305,1.413 -9.976,4.238c-2.672,2.826 -4.007,6.357 -4.007,10.594c0,4.185 1.316,7.704 3.949,10.555c2.632,2.85 5.836,4.276 9.611,4.276"/>
    </g>
    <path id="svg_6" fill="#231f20" d="m167.402998,501.248904l7.55,0l0,7.616l-7.55,0l0,-7.616z"/>
    <g id="svg_7">
     <path id="svg_8" fill="#231f20" d="m130.012995,525.068919c-2.864,-2.916 -6.17,-4.373 -9.919,-4.373c-4.109,0 -7.583,1.451 -10.421,4.353c-2.837,2.902 -4.256,6.497 -4.256,10.787c0,4.082 1.419,7.536 4.256,10.361c2.838,2.825 6.26,4.238 10.266,4.238c3.904,0 7.274,-1.484 10.113,-4.45c2.837,-2.966 4.255,-6.528 4.255,-10.689c0,-3.904 -1.431,-7.313 -4.294,-10.227m3.91,26.559c-2.003,2.081 -4.225,3.635 -6.664,4.663c-2.44,1.026 -5.111,1.54 -8.013,1.54c-3.235,0 -6.119,-0.533 -8.648,-1.599c-2.53,-1.066 -4.86,-2.715 -6.991,-4.95c-1.952,-2.028 -3.454,-4.38 -4.507,-7.049c-1.054,-2.671 -1.58,-5.497 -1.58,-8.475c0,-6.395 2.105,-11.717 6.318,-15.966c4.211,-4.251 9.502,-6.377 15.871,-6.377c2.721,0 5.283,0.522 7.684,1.561s4.578,2.575 6.53,4.604l0,-5.2l7.704,0l0,42.372l-7.704,0l0,-5.124z"/>
    </g>
    <path id="svg_9" fill="#231f20" d="m202.212998,514.378904l7.551,0l0,42.372l-7.551,0l0,-42.372z"/>
    <g id="svg_10">
     <path id="svg_11" fill="#231f20" d="m229.303003,540.268901l0,16.485l-7.55,0l0,-42.372l7.55,0l0,18.271"/>
    </g>
    <g id="svg_12">
     <path id="svg_13" fill="#231f20" d="m247.692987,514.758891l-21.741,21.741l20.254,20.255l10.129,0l-20.254,-20.255l21.742,-21.741l-10.13,0z"/>
    </g>
    <g id="svg_14">
     <path id="svg_15" fill="#231f20" d="m281.032984,538.928904c-0.667,0.257 -1.579,0.604 -2.735,1.041c-4.109,1.514 -6.163,3.454 -6.163,5.817c0,1.387 0.456,2.548 1.368,3.486c0.911,0.937 2.048,1.405 3.408,1.405c1.515,0 2.723,-0.436 3.622,-1.308c0.898,-0.874 1.412,-2.094 1.54,-3.66l7.319,0c-0.206,3.825 -1.374,6.798 -3.505,8.917c-2.132,2.119 -5.008,3.178 -8.629,3.178c-3.466,0 -6.401,-1.207 -8.802,-3.621c-2.401,-2.415 -3.602,-5.342 -3.602,-8.783c0,-2.002 0.359,-3.768 1.079,-5.295c0.718,-1.53 1.836,-2.896 3.351,-4.103c0.822,-0.668 2.735,-1.567 5.74,-2.697c1.13,-0.411 2.003,-0.745 2.619,-1.002c1.798,-0.719 3.102,-1.593 3.911,-2.619c0.808,-1.027 1.213,-2.286 1.213,-3.775c0,-1.694 -0.572,-3.088 -1.715,-4.179c-1.143,-1.093 -2.6,-1.637 -4.371,-1.637c-1.875,0 -3.436,0.725 -4.681,2.175c-1.245,1.451 -1.868,3.294 -1.868,5.528l-7.165,0c0.231,-4.597 1.554,-8.218 3.967,-10.862c2.414,-2.645 5.586,-3.968 9.516,-3.968c3.903,0 7.138,1.258 9.706,3.775c2.567,2.516 3.853,5.676 3.853,9.476c0,3.262 -0.688,5.868 -2.061,7.82c-1.375,1.952 -3.679,3.583 -6.915,4.891"/>
    </g>
    <g id="svg_16">
     <path id="svg_17" fill="#231f20" d="m306.063013,539.318919c0.925,3.391 2.613,6.067 5.065,8.031c2.454,1.965 5.349,2.948 8.688,2.948c3.261,0 6.059,-0.958 8.396,-2.87c2.337,-1.915 3.981,-4.617 4.932,-8.109l-27.081,0zm31.819,8.552c-2.081,3.107 -4.719,5.528 -7.917,7.261c-3.197,1.733 -6.658,2.6 -10.381,2.6c-3.133,0 -6.022,-0.585 -8.667,-1.753c-2.646,-1.168 -5.021,-2.908 -7.126,-5.219c-1.978,-2.132 -3.474,-4.495 -4.488,-7.088c-1.015,-2.595 -1.521,-5.381 -1.521,-8.358c0,-2.878 0.557,-5.697 1.675,-8.456c1.117,-2.762 2.665,-5.182 4.642,-7.262c2.106,-2.209 4.455,-3.865 7.049,-4.97c2.594,-1.102 5.457,-1.656 8.59,-1.656c4.648,0 8.725,1.245 12.231,3.737c3.505,2.491 6.234,6.087 8.186,10.786l-8.591,0c-1.232,-2.209 -2.883,-3.917 -4.949,-5.123c-2.068,-1.208 -4.361,-1.81 -6.877,-1.81c-3.519,0 -6.555,1.098 -9.11,3.294c-2.555,2.194 -4.154,5.065 -4.795,8.609l35.669,0l0,1.193c0,2.953 -0.294,5.58 -0.885,7.879c-0.591,2.297 -1.502,4.409 -2.735,6.336"/>
    </g>
    <path id="svg_18" fill="#231f20" d="m366.202998,500.958904l7.55,0l0,7.616l-7.55,0l0,-7.616z"/>
    <g id="svg_19">
     <path id="svg_20" fill="#231f20" d="m370.172998,550.178904c2.928,0 5.444,-0.644 7.55,-1.927c2.105,-1.285 3.826,-3.223 5.162,-5.817l8.358,0c-1.617,4.855 -4.212,8.623 -7.781,11.307c-3.569,2.683 -7.781,4.025 -12.635,4.025c-3.106,0 -6.021,-0.603 -8.744,-1.81c-2.722,-1.208 -5.175,-2.979 -7.357,-5.317c-1.978,-2.13 -3.474,-4.486 -4.488,-7.068c-1.014,-2.581 -1.521,-5.348 -1.521,-8.302c0,-2.876 0.558,-5.695 1.676,-8.455c1.117,-2.761 2.664,-5.18 4.641,-7.261c2.08,-2.182 4.404,-3.82 6.972,-4.911s5.432,-1.638 8.59,-1.638c5.009,0 9.259,1.317 12.751,3.949s6.125,6.504 7.896,11.614l-8.358,0c-1.207,-2.569 -2.889,-4.552 -5.047,-5.951c-2.157,-1.4 -4.57,-2.1 -7.242,-2.1c-3.98,0 -7.306,1.412 -9.977,4.237c-2.671,2.826 -4.006,6.357 -4.006,10.595c0,4.184 1.316,7.703 3.949,10.554c2.632,2.851 5.836,4.276 9.611,4.276"/>
    </g>
    <path id="svg_21" fill="#231f20" d="m401.022998,514.088904l7.551,0l0,42.372l-7.551,0l0,-42.372z"/>
    <path id="svg_22" fill="#231f20" d="m401.022998,562.558904l7.551,0l0,7.616l-7.551,0l0,-7.616z"/>
    <g id="svg_23">
     <path id="svg_24" fill="#231f20" d="m455.522974,556.458903l-13.917,-13.844l-13.854,13.844l-7.551,0l0,-42.373l7.551,0l0,31.705l8.514,-8.515l5.34,-5.339l13.917,13.917l0,-31.768l7.551,0l0,39.319l0,3.054l-7.551,0z"/>
    </g>
    <g id="svg_25">
     <path id="svg_26" fill="#40bfc5" d="m24.253,516.968913l-12.609,18.736l5.136,3.457l9.153,-13.6l7.977,5.368l18.809,12.659l1.793,-2.664l14.147,-20.935l0,49.927l-17.449,0l4.048,-6.016l-21.348,-14.368l-3.588,-2.415l-15.344,22.799l-14.978,0l0,-68.658l34.904,0l-10.643,15.715l-0.008,-0.005z"/>
    </g>
    <g id="svg_27">
     <path id="svg_28" fill="#40bfc5" d="m51.202997,569.908915l-17.082,25.381l-0.218,-0.147l-24.719,-16.635l5.787,-8.599l18.932,0l17.3,0z"/>
    </g>
    <g id="svg_29">
     <path id="svg_30" fill="#2c8389" d="m68.652994,519.988902l-12.479,18.466l-22.271,-14.988l-9.648,-6.494l10.643,-15.715l33.755,0l0,18.731z"/>
    </g>
    <path id="svg_31" fill="#40bfc5" d="m480.462998,514.378904l-6.25,0l0,6.689l6.25,0l0,-6.689z"/>
    <g id="svg_32">
     <path id="svg_33" fill="#40bfc5" d="m496.212976,527.978892c0,-2.49 0.684,-4.464 2.051,-5.921c1.367,-1.456 3.222,-2.184 5.566,-2.184c2.311,0 4.154,0.745 5.53,2.233c1.375,1.49 2.063,3.495 2.063,6.018c0,2.262 -0.721,4.123 -2.16,5.58c-1.442,1.456 -3.252,2.184 -5.433,2.184c-2.246,0 -4.077,-0.736 -5.493,-2.21c-1.416,-1.472 -2.124,-3.373 -2.124,-5.7m-6.445,-0.049c0,1.888 0.345,3.683 1.038,5.384c0.691,1.7 1.696,3.21 3.014,4.528c1.351,1.351 2.872,2.389 4.566,3.113c1.692,0.724 3.45,1.087 5.273,1.087c1.937,0 3.723,-0.322 5.36,-0.964c1.634,-0.644 3.136,-1.609 4.504,-2.894c1.399,-1.351 2.481,-2.909 3.247,-4.675c0.764,-1.766 1.147,-3.577 1.147,-5.432c0,-2.051 -0.334,-3.923 -1.001,-5.616c-0.668,-1.693 -1.669,-3.222 -3.003,-4.589c-1.335,-1.384 -2.856,-2.429 -4.565,-3.138c-1.709,-0.707 -3.565,-1.062 -5.567,-1.062c-2.018,0 -3.857,0.359 -5.517,1.075c-1.66,0.715 -3.174,1.79 -4.541,3.222c-1.303,1.4 -2.287,2.943 -2.954,4.626c-0.668,1.686 -1.001,3.463 -1.001,5.335"/>
    </g>
    <g id="svg_34">
     <path id="svg_35" fill="#40bfc5" d="m537.363001,535.78889c-2.426,-0.195 -4.118,-0.83 -5.078,-1.904c-0.961,-1.075 -1.441,-3.012 -1.441,-5.811l0,-13.696l-6.25,0l0,26.855l5.86,0l0,-3.1c0.943,1.204 1.977,2.087 3.1,2.649c1.123,0.561 2.393,0.842 3.809,0.842l0,-5.835z"/>
    </g>
    <g id="svg_36">
     <path id="svg_37" fill="#40bfc5" d="m547.443018,528.268901c0,-2.344 0.785,-4.306 2.356,-5.884c1.571,-1.579 3.503,-2.368 5.798,-2.368c2.1,0 3.951,0.797 5.554,2.393c1.604,1.594 2.405,3.45 2.405,5.566c0,2.295 -0.79,4.252 -2.368,5.872c-1.579,1.619 -3.459,2.429 -5.64,2.429c-2.246,0 -4.159,-0.774 -5.737,-2.32c-1.579,-1.546 -2.368,-3.442 -2.368,-5.688m16.699,12.964l5.591,0l0,-22.412c0,-4.655 -1.241,-8.309 -3.723,-10.962c-2.482,-2.652 -5.888,-3.98 -10.217,-3.98c-3.24,0 -5.95,0.761 -8.13,2.284c-2.182,1.521 -3.784,3.78 -4.81,6.774l6.03,0c0.651,-1.204 1.579,-2.148 2.784,-2.832c1.204,-0.684 2.547,-1.025 4.028,-1.025c2.49,0 4.513,0.809 6.067,2.428c1.554,1.62 2.331,3.756 2.331,6.409l0,0.269c-1.205,-1.254 -2.58,-2.201 -4.126,-2.844s-3.239,-0.965 -5.078,-0.965c-1.791,0 -3.487,0.309 -5.09,0.928c-1.603,0.618 -3.024,1.505 -4.26,2.661c-1.335,1.27 -2.385,2.783 -3.15,4.541s-1.147,3.548 -1.147,5.371c0,4.069 1.285,7.426 3.857,10.072c2.572,2.644 5.835,3.966 9.79,3.966c1.807,0 3.471,-0.317 4.992,-0.952c1.523,-0.634 2.943,-1.611 4.261,-2.929l0,3.198z"/>
    </g>
   </g>
  </g>
 </g>
</svg>